<svg width="59" height="61" viewBox="0 0 59 61" fill="none" xmlns="http://www.w3.org/2000/svg">
<path d="M33.2423 25.7325C26.0905 13.8101 35.6262 1.89059 55.8922 3.08254C57.0842 23.3486 45.1646 32.8842 33.2423 25.7325Z" stroke="#8BCE9A" stroke-width="6" stroke-linecap="round" stroke-linejoin="round"/>
<path d="M20.0454 26.3826C25.2466 17.711 18.3116 9.04228 3.5719 9.90915C2.69932 24.6432 11.3681 31.5782 20.0454 26.3826Z" stroke="#8BCE9A" stroke-width="6" stroke-linecap="round" stroke-linejoin="round"/>
<path d="M33.2423 25.7324L21.7562 37.2185" stroke="#8BCE9A" stroke-width="6" stroke-linecap="round" stroke-linejoin="round"/>
<path d="M20.0394 26.377L26.3186 32.6561" stroke="#8BCE9A" stroke-width="6" stroke-linecap="round" stroke-linejoin="round"/>
<path d="M44.5687 37.2185L40.4026 55.9647C40.2897 56.4711 40.0076 56.924 39.6027 57.2485C39.1978 57.5731 38.6944 57.7499 38.1755 57.7498H19.0244C18.5055 57.7499 18.0021 57.5731 17.5972 57.2485C17.1924 56.924 16.9102 56.4711 16.7974 55.9647L12.6312 37.2185H44.5687Z" fill="#8BCE9A"/>
<path d="M8.06873 37.2185H49.1312" stroke="#122D26" stroke-width="6" stroke-linecap="round" stroke-linejoin="round"/>
<path d="M44.5687 37.2185L40.4026 55.9647C40.2897 56.4711 40.0076 56.924 39.6027 57.2485C39.1978 57.5731 38.6944 57.7499 38.1755 57.7498H19.0244C18.5055 57.7499 18.0021 57.5731 17.5972 57.2485C17.1924 56.924 16.9102 56.4711 16.7974 55.9647L12.6312 37.2185" stroke="#122D26" stroke-width="6" stroke-linecap="round" stroke-linejoin="round"/>
</svg>
